<svg width="28" height="28" viewBox="0 0 28 28" fill="none" xmlns="http://www.w3.org/2000/svg">
<g clip-path="url(#clip0_1_451)">
<path d="M8.75 14L12.25 17.5L19.25 10.5M25.6667 14C25.6667 20.4433 20.4433 25.6667 14 25.6667C7.55668 25.6667 2.33334 20.4433 2.33334 14C2.33334 7.55668 7.55668 2.33334 14 2.33334C20.4433 2.33334 25.6667 7.55668 25.6667 14Z" stroke="#7F56D9" stroke-width="2.33333" stroke-linecap="round" stroke-linejoin="round"/>
</g>
<defs>
<clipPath id="clip0_1_451">
<path d="M0 14C0 6.26801 6.26801 0 14 0C21.732 0 28 6.26801 28 14C28 21.732 21.732 28 14 28C6.26801 28 0 21.732 0 14Z" fill="white"/>
</clipPath>
</defs>
</svg>
